<?xml version="1.0" encoding="utf-8"?>
<!-- Generator: Adobe Illustrator 28.0.0, SVG Export Plug-In . SVG Version: 6.00 Build 0)  -->
<svg version="1.1" id="Layer_1" xmlns="http://www.w3.org/2000/svg" xmlns:xlink="http://www.w3.org/1999/xlink" x="0px" y="0px"
	 viewBox="0 0 255 60" style="enable-background:new 0 0 255 60;" xml:space="preserve">
<style type="text/css">
	.st0{fill-rule:evenodd;clip-rule:evenodd;fill:url(#SVGID_1_);}
	.st1{fill:url(#SVGID_00000181782802680653113850000008418611793568009903_);}
	.st2{fill:url(#SVGID_00000034091468117463515500000008824384071808119174_);}
	.st3{fill:url(#SVGID_00000052790987207701995430000002914980063020923557_);}
</style>
<g>
	<linearGradient id="SVGID_1_" gradientUnits="userSpaceOnUse" x1="2.3347" y1="30.9584" x2="252.6653" y2="30.9584">
		<stop  offset="0" style="stop-color:#F5864D"/>
		<stop  offset="1" style="stop-color:#F06DA5"/>
	</linearGradient>
	<path class="st0" d="M186.81,14.1c-1.31-0.88-2.85-1.35-4.43-1.33c-3.31,0-4.87,1.76-4.87,5.37v1.34h10.18v9.55h-9.87v29.88h-12.22
		V18.09c0-9.45,5.86-15.09,15.67-15.09c3.67,0,6.94,0.8,8.96,2.2l0.23,0.16l-3.28,9.02L186.81,14.1z M58.58,17.44
		c12.22,0,20.78,8.38,20.84,20.37l-0.03,0.3l-29.13,5.63c1.69,3.44,5.14,5.26,10,5.26c1.78,0.07,3.56-0.22,5.23-0.86
		c1.67-0.64,3.18-1.62,4.46-2.86l0.27-0.24l6.58,7.12l-0.22,0.24c-3.79,4.37-9.42,6.52-16.61,6.52c-13.51,0-22.95-8.52-22.95-20.73
		C37.02,26.16,46.09,17.44,58.58,17.44z M58.6,26.83c-5.56,0-9.19,3.71-9.56,9.73l18.45-3.59C66.29,29.18,62.92,26.83,58.6,26.83z
		 M95.94,18.62v4.55c2.9-3.38,7.46-5.14,13.27-5.14h0.36v11.34l-0.86-0.07l-0.01,0c-0.72-0.06-1.35-0.11-2.07-0.11
		c-6.57,0-10.16,3.79-10.16,10.68v19.05H84.26v-40.3H95.94z M126.62,23.17v-4.55h-11.67v40.3h12.22V39.87
		c0-6.88,3.59-10.68,10.17-10.68c0.7,0,1.32,0.05,2.03,0.1l0.05,0l0.86,0.07V18.03h-0.36C134.09,18.03,129.54,19.79,126.62,23.17z
		 M145.63,18.61h12.2v40.3h-12.2V18.61z M207.19,18.61h-12.2v40.3h12.2V18.61z M243.15,43.21l-0.17,0.31
		c-1.95,3.49-4.84,5.26-8.62,5.26c-5.99,0-10.02-4.26-10.02-10.6c0-6.34,4.02-10.6,10.02-10.6c3.67,0,6.63,1.82,8.62,5.26l0.18,0.31
		l9.5-5.11l-0.13-0.3c-2.88-6.54-9.49-10.29-18.07-10.29c-13,0-22.44,8.72-22.44,20.74c0,12.02,9.44,20.73,22.44,20.73
		c8.54,0,15.09-3.72,18.06-10.22l0.14-0.3L243.15,43.21z M28.16,49.08c1.59,0.02,3.14-0.47,4.42-1.4l0.39-0.29l3.36,8.79l-0.22,0.17
		c-2.26,1.63-5.75,2.57-9.55,2.57c-8.2,0-13.3-3.64-14.74-10.35c-0.29-1.38-0.43-2.8-0.42-4.21v-0.33v-14.6H2.33v-0.96
		c0.03-2.22,0.86-4.36,2.33-6.03c1.47-1.67,3.49-2.76,5.69-3.08c0.35-0.05,0.69-0.08,1.04-0.09v-0.35V9.28h0.83
		c2.78,0,5.46,1.01,7.53,2.85c2.08,1.84,3.41,4.37,3.75,7.13c0.06,0.46,0.09,0.92,0.09,1.39v23.57
		C23.59,47.35,25.22,49.08,28.16,49.08z"/>
	
		<linearGradient id="SVGID_00000150809158392461994580000001220992651810856097_" gradientUnits="userSpaceOnUse" x1="145.6122" y1="7.1575" x2="157.7574" y2="7.1575">
		<stop  offset="0" style="stop-color:#F5864D"/>
		<stop  offset="1" style="stop-color:#F06DA5"/>
	</linearGradient>
	<path style="fill:url(#SVGID_00000150809158392461994580000001220992651810856097_);" d="M151.68,13.23c3.35,0,6.07-2.72,6.07-6.07
		c0-3.35-2.72-6.07-6.07-6.07c-3.35,0-6.07,2.72-6.07,6.07C145.61,10.51,148.33,13.23,151.68,13.23z"/>
	
		<linearGradient id="SVGID_00000183225727707432676240000007652835119006864797_" gradientUnits="userSpaceOnUse" x1="194.9914" y1="7.1575" x2="207.1368" y2="7.1575">
		<stop  offset="0" style="stop-color:#F5864D"/>
		<stop  offset="1" style="stop-color:#F06DA5"/>
	</linearGradient>
	<path style="fill:url(#SVGID_00000183225727707432676240000007652835119006864797_);" d="M201.06,13.23c3.35,0,6.07-2.72,6.07-6.07
		c0-3.35-2.72-6.07-6.07-6.07c-3.35,0-6.07,2.72-6.07,6.07C194.99,10.51,197.71,13.23,201.06,13.23z"/>
	
		<linearGradient id="SVGID_00000011754348000336464070000009214497093012167063_" gradientUnits="userSpaceOnUse" x1="25.8494" y1="24.3345" x2="36.0113" y2="24.3345">
		<stop  offset="0" style="stop-color:#F5864D"/>
		<stop  offset="1" style="stop-color:#F06DA5"/>
	</linearGradient>
	<path style="fill:url(#SVGID_00000011754348000336464070000009214497093012167063_);" d="M36.01,24.34c0,1.17-0.41,2.31-1.15,3.22
		c-0.75,0.91-1.78,1.53-2.94,1.76c-1.15,0.23-2.35,0.05-3.39-0.5c-1.04-0.55-1.85-1.45-2.3-2.54c-0.45-1.09-0.51-2.29-0.17-3.42
		c0.34-1.12,1.06-2.1,2.04-2.75c0.98-0.65,2.15-0.95,3.32-0.83c1.17,0.12,2.26,0.63,3.09,1.46c0.47,0.47,0.85,1.03,1.11,1.65
		C35.88,23.01,36.01,23.67,36.01,24.34z"/>
</g>
</svg>
